REM DIRINDEX 1\5,1\2\6,1\2\7,1\3\8,1\3\9,1\4\10,1\4\11,1\4\12
REM DIRNAME folder01,folder02,folder03,folder04,folder05,folder06,folder07,folder08,folder09,folder10,folder11,folder12
TITLE ""
FILE "EJE_DB3000_5th_6C_31.mp3" MP3
  TRACK 01 AUDIO
    TITLE "0:"
    INDEX 01 00:00:00
  TRACK 02 AUDIO
    TITLE "10:cjc026_11352"
    INDEX 01 00:00:07
  TRACK 03 AUDIO
    TITLE "0:"
    INDEX 01 00:01:01
  TRACK 04 AUDIO
    TITLE "11:cjc026_11353"
    INDEX 01 00:01:28
  TRACK 05 AUDIO
    TITLE "0:"
    INDEX 01 00:02:32
  TRACK 06 AUDIO
    TITLE "12:cjc026_11354"
    INDEX 01 00:02:59
  TRACK 07 AUDIO
    TITLE "0:"
    INDEX 01 00:03:53
  TRACK 08 AUDIO
    TITLE "10:cjc026_11355"
    INDEX 01 00:04:05
  TRACK 09 AUDIO
    TITLE "0:"
    INDEX 01 00:04:70
  TRACK 10 AUDIO
    TITLE "11:cjc026_11356"
    INDEX 01 00:05:20
  TRACK 11 AUDIO
    TITLE "0:"
    INDEX 01 00:07:17
  TRACK 12 AUDIO
    TITLE "12:cjc026_11357"
    INDEX 01 00:07:45
  TRACK 13 AUDIO
    TITLE "0:"
    INDEX 01 00:08:36
  TRACK 14 AUDIO
    TITLE "10:cjc026_11358"
    INDEX 01 00:08:62
  TRACK 15 AUDIO
    TITLE "0:"
    INDEX 01 00:09:55
  TRACK 16 AUDIO
    TITLE "11:cjc026_11359"
    INDEX 01 00:10:06
  TRACK 17 AUDIO
    TITLE "0:"
    INDEX 01 00:11:17
  TRACK 18 AUDIO
    TITLE "12:cjc026_11360"
    INDEX 01 00:11:44
  TRACK 19 AUDIO
    TITLE "0:"
    INDEX 01 00:12:38
  TRACK 20 AUDIO
    TITLE "10:cjc026_11361"
    INDEX 01 00:12:63
  TRACK 21 AUDIO
    TITLE "0:"
    INDEX 01 00:13:51
  TRACK 22 AUDIO
    TITLE "11:cjc026_11362"
    INDEX 01 00:14:04
  TRACK 23 AUDIO
    TITLE "0:"
    INDEX 01 00:15:01
  TRACK 24 AUDIO
    TITLE "12:cjc026_11363"
    INDEX 01 00:15:27
  TRACK 25 AUDIO
    TITLE "0:"
    INDEX 01 00:16:16
  TRACK 26 AUDIO
    TITLE "10:cjc026_11364"
    INDEX 01 00:16:42
  TRACK 27 AUDIO
    TITLE "0:"
    INDEX 01 00:17:25
  TRACK 28 AUDIO
    TITLE "11:cjc026_11365"
    INDEX 01 00:17:53
  TRACK 29 AUDIO
    TITLE "0:"
    INDEX 01 00:18:66
  TRACK 30 AUDIO
    TITLE "12:cjc026_11366"
    INDEX 01 00:19:18
  TRACK 31 AUDIO
    TITLE "0:"
    INDEX 01 00:20:02
  TRACK 32 AUDIO
    TITLE "10:cjc026_11367"
    INDEX 01 00:20:30
  TRACK 33 AUDIO
    TITLE "0:"
    INDEX 01 00:21:31
  TRACK 34 AUDIO
    TITLE "11:cjc026_11368"
    INDEX 01 00:21:57
  TRACK 35 AUDIO
    TITLE "0:"
    INDEX 01 00:22:66
  TRACK 36 AUDIO
    TITLE "12:cjc026_11369"
    INDEX 01 00:23:16
  TRACK 37 AUDIO
    TITLE "0:"
    INDEX 01 00:24:18
  TRACK 38 AUDIO
    TITLE "10:cjc026_11370"
    INDEX 01 00:24:43
  TRACK 39 AUDIO
    TITLE "0:"
    INDEX 01 00:25:46
  TRACK 40 AUDIO
    TITLE "11:cjc026_11371"
    INDEX 01 00:25:72
  TRACK 41 AUDIO
    TITLE "0:"
    INDEX 01 00:27:32
  TRACK 42 AUDIO
    TITLE "12:cjc026_11372"
    INDEX 01 00:27:55
  TRACK 43 AUDIO
    TITLE "0:"
    INDEX 01 00:28:59
  TRACK 44 AUDIO
    TITLE "10:cjc026_11373"
    INDEX 01 00:29:09
  TRACK 45 AUDIO
    TITLE "0:"
    INDEX 01 00:29:74
  TRACK 46 AUDIO
    TITLE "11:cjc026_11374"
    INDEX 01 00:30:24
  TRACK 47 AUDIO
    TITLE "0:"
    INDEX 01 00:31:33
  TRACK 48 AUDIO
    TITLE "12:cjc026_11375"
    INDEX 01 00:31:61
  TRACK 49 AUDIO
    TITLE "0:"
    INDEX 01 00:32:50
  TRACK 50 AUDIO
    TITLE "10:cjc026_11376"
    INDEX 01 00:33:01
  TRACK 51 AUDIO
    TITLE "0:"
    INDEX 01 00:33:69
  TRACK 52 AUDIO
    TITLE "11:cjc026_11377"
    INDEX 01 00:34:22
  TRACK 53 AUDIO
    TITLE "0:"
    INDEX 01 00:35:23
  TRACK 54 AUDIO
    TITLE "12:cjc026_11378"
    INDEX 01 00:35:51
  TRACK 55 AUDIO
    TITLE "0:"
    INDEX 01 00:36:44
  TRACK 56 AUDIO
    TITLE "10:cjc026_11379"
    INDEX 01 00:36:70
  TRACK 57 AUDIO
    TITLE "0:"
    INDEX 01 00:37:65
  TRACK 58 AUDIO
    TITLE "11:cjc026_11380"
    INDEX 01 00:38:18
  TRACK 59 AUDIO
    TITLE "0:"
    INDEX 01 00:39:27
  TRACK 60 AUDIO
    TITLE "12:cjc026_11381"
    INDEX 01 00:39:52
  TRACK 61 AUDIO
    TITLE "0:"
    INDEX 01 00:40:48
  TRACK 62 AUDIO
    TITLE "10:cjc026_11382"
    INDEX 01 00:41:00
  TRACK 63 AUDIO
    TITLE "0:"
    INDEX 01 00:41:67
  TRACK 64 AUDIO
    TITLE "11:cjc026_11383"
    INDEX 01 00:42:19
  TRACK 65 AUDIO
    TITLE "0:"
    INDEX 01 00:43:31
  TRACK 66 AUDIO
    TITLE "12:cjc026_11384"
    INDEX 01 00:43:56
  TRACK 67 AUDIO
    TITLE "0:"
    INDEX 01 00:44:50
  TRACK 68 AUDIO
    TITLE "10:cjc026_11385"
    INDEX 01 00:45:00
  TRACK 69 AUDIO
    TITLE "0:"
    INDEX 01 00:46:04
  TRACK 70 AUDIO
    TITLE "11:cjc026_11386"
    INDEX 01 00:46:29
  TRACK 71 AUDIO
    TITLE "0:"
    INDEX 01 00:47:44
  TRACK 72 AUDIO
    TITLE "12:cjc026_11387"
    INDEX 01 00:47:68
  TRACK 73 AUDIO
    TITLE "0:"
    INDEX 01 00:48:71
